<svg xmlns="http://www.w3.org/2000/svg" version="1.1" xmlns:xlink="http://www.w3.org/1999/xlink" xmlns:svgjs="http://svgjs.com/svgjs" width="1840" height="1100" preserveAspectRatio="none" viewBox="0 0 1840 1100"><g mask="url(&quot;#SvgjsMask1294&quot;)" fill="none"><path d="M1346 883L1345 564" stroke-width="6" stroke="url(#SvgjsLinearGradient1295)" stroke-linecap="round" class="Up"></path><path d="M88 769L87 473" stroke-width="6" stroke="url(#SvgjsLinearGradient1296)" stroke-linecap="round" class="Down"></path><path d="M1227 766L1226 15" stroke-width="6" stroke="url(#SvgjsLinearGradient1295)" stroke-linecap="round" class="Up"></path><path d="M1468 446L1467 801" stroke-width="10" stroke="url(#SvgjsLinearGradient1295)" stroke-linecap="round" class="Up"></path><path d="M1579 945L1578 1660" stroke-width="8" stroke="url(#SvgjsLinearGradient1295)" stroke-linecap="round" class="Up"></path><path d="M814 569L813 906" stroke-width="6" stroke="url(#SvgjsLinearGradient1296)" stroke-linecap="round" class="Down"></path><path d="M1321 567L1320 1338" stroke-width="10" stroke="url(#SvgjsLinearGradient1296)" stroke-linecap="round" class="Down"></path><path d="M466 211L465 996" stroke-width="6" stroke="url(#SvgjsLinearGradient1295)" stroke-linecap="round" class="Up"></path><path d="M1142 870L1141 70" stroke-width="8" stroke="url(#SvgjsLinearGradient1295)" stroke-linecap="round" class="Up"></path><path d="M1065 849L1064 1406" stroke-width="8" stroke="url(#SvgjsLinearGradient1296)" stroke-linecap="round" class="Down"></path><path d="M1756 585L1755 941" stroke-width="6" stroke="url(#SvgjsLinearGradient1296)" stroke-linecap="round" class="Down"></path><path d="M866 749L865 24" stroke-width="10" stroke="url(#SvgjsLinearGradient1295)" stroke-linecap="round" class="Up"></path><path d="M270 665L269 1132" stroke-width="6" stroke="url(#SvgjsLinearGradient1295)" stroke-linecap="round" class="Up"></path><path d="M1721 80L1720 -413" stroke-width="8" stroke="url(#SvgjsLinearGradient1296)" stroke-linecap="round" class="Down"></path><path d="M1390 333L1389 -492" stroke-width="6" stroke="url(#SvgjsLinearGradient1295)" stroke-linecap="round" class="Up"></path><path d="M1079 121L1078 -644" stroke-width="6" stroke="url(#SvgjsLinearGradient1296)" stroke-linecap="round" class="Down"></path><path d="M33 461L32 1000" stroke-width="10" stroke="url(#SvgjsLinearGradient1296)" stroke-linecap="round" class="Down"></path><path d="M416 410L415 -140" stroke-width="10" stroke="url(#SvgjsLinearGradient1295)" stroke-linecap="round" class="Up"></path><path d="M257 1038L256 589" stroke-width="10" stroke="url(#SvgjsLinearGradient1295)" stroke-linecap="round" class="Up"></path><path d="M433 181L432 -335" stroke-width="6" stroke="url(#SvgjsLinearGradient1296)" stroke-linecap="round" class="Down"></path><path d="M1733 480L1732 1234" stroke-width="10" stroke="url(#SvgjsLinearGradient1296)" stroke-linecap="round" class="Down"></path><path d="M1005 567L1004 102" stroke-width="10" stroke="url(#SvgjsLinearGradient1296)" stroke-linecap="round" class="Down"></path><path d="M555 972L554 1262" stroke-width="6" stroke="url(#SvgjsLinearGradient1295)" stroke-linecap="round" class="Up"></path><path d="M968 828L967 358" stroke-width="8" stroke="url(#SvgjsLinearGradient1296)" stroke-linecap="round" class="Down"></path><path d="M1358 278L1357 -146" stroke-width="10" stroke="url(#SvgjsLinearGradient1295)" stroke-linecap="round" class="Up"></path><path d="M581 988L580 499" stroke-width="8" stroke="url(#SvgjsLinearGradient1295)" stroke-linecap="round" class="Up"></path><path d="M1096 322L1095 -298" stroke-width="8" stroke="url(#SvgjsLinearGradient1295)" stroke-linecap="round" class="Up"></path><path d="M1507 37L1506 703" stroke-width="6" stroke="url(#SvgjsLinearGradient1296)" stroke-linecap="round" class="Down"></path><path d="M403 868L402 1230" stroke-width="6" stroke="url(#SvgjsLinearGradient1295)" stroke-linecap="round" class="Up"></path><path d="M1617 742L1616 439" stroke-width="10" stroke="url(#SvgjsLinearGradient1296)" stroke-linecap="round" class="Down"></path><path d="M389 359L388 813" stroke-width="6" stroke="url(#SvgjsLinearGradient1296)" stroke-linecap="round" class="Down"></path><path d="M1661 646L1660 1469" stroke-width="8" stroke="url(#SvgjsLinearGradient1295)" stroke-linecap="round" class="Up"></path><path d="M1518 671L1517 172" stroke-width="8" stroke="url(#SvgjsLinearGradient1296)" stroke-linecap="round" class="Down"></path><path d="M19 1086L18 1751" stroke-width="10" stroke="url(#SvgjsLinearGradient1295)" stroke-linecap="round" class="Up"></path><path d="M930 646L929 94" stroke-width="10" stroke="url(#SvgjsLinearGradient1295)" stroke-linecap="round" class="Up"></path><path d="M644 831L643 244" stroke-width="6" stroke="url(#SvgjsLinearGradient1296)" stroke-linecap="round" class="Down"></path><path d="M364 1056L363 1438" stroke-width="8" stroke="url(#SvgjsLinearGradient1296)" stroke-linecap="round" class="Down"></path><path d="M1674 913L1673 1725" stroke-width="10" stroke="url(#SvgjsLinearGradient1295)" stroke-linecap="round" class="Up"></path><path d="M481 1028L480 1703" stroke-width="6" stroke="url(#SvgjsLinearGradient1295)" stroke-linecap="round" class="Up"></path><path d="M67 653L66 1320" stroke-width="8" stroke="url(#SvgjsLinearGradient1296)" stroke-linecap="round" class="Down"></path><path d="M359 166L358 -190" stroke-width="8" stroke="url(#SvgjsLinearGradient1295)" stroke-linecap="round" class="Up"></path><path d="M5 1080L4 287" stroke-width="10" stroke="url(#SvgjsLinearGradient1295)" stroke-linecap="round" class="Up"></path><path d="M300 1072L299 248" stroke-width="8" stroke="url(#SvgjsLinearGradient1295)" stroke-linecap="round" class="Up"></path><path d="M319 421L318 847" stroke-width="8" stroke="url(#SvgjsLinearGradient1296)" stroke-linecap="round" class="Down"></path><path d="M645 750L644 1253" stroke-width="6" stroke="url(#SvgjsLinearGradient1295)" stroke-linecap="round" class="Up"></path><path d="M1214 76L1213 759" stroke-width="6" stroke="url(#SvgjsLinearGradient1295)" stroke-linecap="round" class="Up"></path></g><defs><mask id="SvgjsMask1294"><rect width="1840" height="1100" fill="#ffffff"></rect></mask><linearGradient x1="0%" y1="100%" x2="0%" y2="0%" id="SvgjsLinearGradient1295"><stop stop-color="rgba(203, 197, 234, 0)" offset="0"></stop><stop stop-color="rgba(203, 197, 234, 0.37)" offset="1"></stop></linearGradient><linearGradient x1="0%" y1="0%" x2="0%" y2="100%" id="SvgjsLinearGradient1296"><stop stop-color="rgba(203, 197, 234, 0)" offset="0"></stop><stop stop-color="rgba(203, 197, 234, 0.37)" offset="1"></stop></linearGradient></defs></svg>