<svg xmlns="http://www.w3.org/2000/svg" version="1.1" xmlns:xlink="http://www.w3.org/1999/xlink" xmlns:svgjs="http://svgjs.com/svgjs" width="1440" height="560" preserveAspectRatio="none" viewBox="0 0 1440 560"><g mask="url(&quot;#SvgjsMask1045&quot;)" fill="none"><path d="M387 429L386 26" stroke-width="10" stroke="url(#SvgjsLinearGradient1046)" stroke-linecap="round" class="Up"></path><path d="M452 53L451 367" stroke-width="10" stroke="url(#SvgjsLinearGradient1047)" stroke-linecap="round" class="Down"></path><path d="M19 94L18 -158" stroke-width="10" stroke="url(#SvgjsLinearGradient1047)" stroke-linecap="round" class="Down"></path><path d="M1035 60L1034 446" stroke-width="8" stroke="url(#SvgjsLinearGradient1047)" stroke-linecap="round" class="Down"></path><path d="M375 228L374 -182" stroke-width="6" stroke="url(#SvgjsLinearGradient1047)" stroke-linecap="round" class="Down"></path><path d="M175 351L174 638" stroke-width="10" stroke="url(#SvgjsLinearGradient1047)" stroke-linecap="round" class="Down"></path><path d="M1190 427L1189 248" stroke-width="10" stroke="url(#SvgjsLinearGradient1047)" stroke-linecap="round" class="Down"></path><path d="M16 316L15 -7" stroke-width="10" stroke="url(#SvgjsLinearGradient1046)" stroke-linecap="round" class="Up"></path><path d="M993 238L992 540" stroke-width="6" stroke="url(#SvgjsLinearGradient1047)" stroke-linecap="round" class="Down"></path><path d="M354 311L353 582" stroke-width="6" stroke="url(#SvgjsLinearGradient1047)" stroke-linecap="round" class="Down"></path><path d="M70 393L69 778" stroke-width="6" stroke="url(#SvgjsLinearGradient1047)" stroke-linecap="round" class="Down"></path><path d="M609 286L608 476" stroke-width="6" stroke="url(#SvgjsLinearGradient1047)" stroke-linecap="round" class="Down"></path><path d="M815 253L814 -38" stroke-width="6" stroke="url(#SvgjsLinearGradient1046)" stroke-linecap="round" class="Up"></path><path d="M842 5L841 286" stroke-width="8" stroke="url(#SvgjsLinearGradient1047)" stroke-linecap="round" class="Down"></path><path d="M692 154L691 -130" stroke-width="6" stroke="url(#SvgjsLinearGradient1046)" stroke-linecap="round" class="Up"></path><path d="M362 64L361 364" stroke-width="8" stroke="url(#SvgjsLinearGradient1046)" stroke-linecap="round" class="Up"></path><path d="M986 64L985 -262" stroke-width="8" stroke="url(#SvgjsLinearGradient1046)" stroke-linecap="round" class="Up"></path><path d="M581 321L580 62" stroke-width="8" stroke="url(#SvgjsLinearGradient1046)" stroke-linecap="round" class="Up"></path><path d="M916 82L915 431" stroke-width="8" stroke="url(#SvgjsLinearGradient1047)" stroke-linecap="round" class="Down"></path><path d="M731 139L730 315" stroke-width="10" stroke="url(#SvgjsLinearGradient1047)" stroke-linecap="round" class="Down"></path><path d="M92 9L91 -154" stroke-width="6" stroke="url(#SvgjsLinearGradient1047)" stroke-linecap="round" class="Down"></path><path d="M1090 327L1089 654" stroke-width="8" stroke="url(#SvgjsLinearGradient1047)" stroke-linecap="round" class="Down"></path><path d="M61 400L60 722" stroke-width="10" stroke="url(#SvgjsLinearGradient1047)" stroke-linecap="round" class="Down"></path><path d="M782 181L781 521" stroke-width="6" stroke="url(#SvgjsLinearGradient1047)" stroke-linecap="round" class="Down"></path><path d="M1201 532L1200 874" stroke-width="10" stroke="url(#SvgjsLinearGradient1047)" stroke-linecap="round" class="Down"></path><path d="M376 497L375 243" stroke-width="10" stroke="url(#SvgjsLinearGradient1046)" stroke-linecap="round" class="Up"></path><path d="M669 334L668 156" stroke-width="10" stroke="url(#SvgjsLinearGradient1047)" stroke-linecap="round" class="Down"></path><path d="M1168 532L1167 857" stroke-width="10" stroke="url(#SvgjsLinearGradient1047)" stroke-linecap="round" class="Down"></path><path d="M580 215L579 508" stroke-width="8" stroke="url(#SvgjsLinearGradient1046)" stroke-linecap="round" class="Up"></path><path d="M93 76L92 -163" stroke-width="10" stroke="url(#SvgjsLinearGradient1046)" stroke-linecap="round" class="Up"></path><path d="M476 283L475 104" stroke-width="10" stroke="url(#SvgjsLinearGradient1046)" stroke-linecap="round" class="Up"></path><path d="M590 364L589 764" stroke-width="8" stroke="url(#SvgjsLinearGradient1046)" stroke-linecap="round" class="Up"></path><path d="M1019 24L1018 -186" stroke-width="6" stroke="url(#SvgjsLinearGradient1046)" stroke-linecap="round" class="Up"></path><path d="M166 247L165 568" stroke-width="6" stroke="url(#SvgjsLinearGradient1046)" stroke-linecap="round" class="Up"></path><path d="M1395 250L1394 551" stroke-width="6" stroke="url(#SvgjsLinearGradient1046)" stroke-linecap="round" class="Up"></path><path d="M1283 263L1282 436" stroke-width="8" stroke="url(#SvgjsLinearGradient1046)" stroke-linecap="round" class="Up"></path></g><defs><mask id="SvgjsMask1045"><rect width="1440" height="560" fill="#ffffff"></rect></mask><linearGradient x1="0%" y1="100%" x2="0%" y2="0%" id="SvgjsLinearGradient1046"><stop stop-color="rgba(234, 234, 234, 0)" offset="0"></stop><stop stop-color="rgba(234, 234, 234, 0.10196078431372549)" offset="1"></stop></linearGradient><linearGradient x1="0%" y1="0%" x2="0%" y2="100%" id="SvgjsLinearGradient1047"><stop stop-color="rgba(234, 234, 234, 0)" offset="0"></stop><stop stop-color="rgba(234, 234, 234, 0.10196078431372549)" offset="1"></stop></linearGradient></defs></svg>