<svg xmlns="http://www.w3.org/2000/svg" version="1.1" xmlns:xlink="http://www.w3.org/1999/xlink" xmlns:svgjs="http://svgjs.com/svgjs" width="1440" height="560" preserveAspectRatio="none" viewBox="0 0 1440 560"><g mask="url(&quot;#SvgjsMask1004&quot;)" fill="none"><path d="M -311.7763642660089,383 C -215.78,318 -23.78,60.4 168.2236357339911,58 C 360.22,55.6 456.22,332.4 648.2236357339912,371 C 840.22,409.6 936.22,257.4 1128.2236357339912,251 C 1320.22,244.6 1545.87,333.6 1608.2236357339912,339 C 1670.58,344.4 1473.64,290.2 1440,278" stroke="rgba(115, 98, 138, 1)" stroke-width="2"></path><path d="M -528.4449620902845,186 C -432.44,212 -240.44,306.2 -48.44496209028458,316 C 143.56,325.8 239.56,229.8 431.55503790971545,235 C 623.56,240.2 719.56,349.8 911.5550379097155,342 C 1103.56,334.2 1285.87,171.2 1391.5550379097153,196 C 1497.24,220.8 1430.31,412 1440,466" stroke="rgba(115, 98, 138, 1)" stroke-width="2"></path><path d="M -289.1022748257316,253 C -193.1,282.4 -1.1,439 190.89772517426837,400 C 382.9,361 478.9,51.2 670.8977251742683,58 C 862.9,64.8 958.9,420.4 1150.8977251742683,434 C 1342.9,447.6 1573.08,136 1630.8977251742683,126 C 1688.72,116 1478.18,332.4 1440,384" stroke="rgba(115, 98, 138, 1)" stroke-width="2"></path><path d="M -332.57945618206816,360 C -236.58,308.2 -44.58,106.6 147.42054381793184,101 C 339.42,95.4 435.42,307.8 627.4205438179318,332 C 819.42,356.2 915.42,224.2 1107.420543817932,222 C 1299.42,219.8 1520.9,316 1587.420543817932,321 C 1653.94,326 1469.48,261.8 1440,247" stroke="rgba(115, 98, 138, 1)" stroke-width="2"></path></g><defs><mask id="SvgjsMask1004"><rect width="1440" height="560" fill="#ffffff"></rect></mask></defs></svg>